<svg xmlns="http://www.w3.org/2000/svg" xmlns:xlink="http://www.w3.org/1999/xlink" width="2000" zoomAndPan="magnify" viewBox="0 0 1500 1499.999933" height="2000" preserveAspectRatio="xMidYMid meet" version="1.0"><defs><clipPath id="e45b372008"><path d="M 15 450 L 590 450 L 590 1033.542969 L 15 1033.542969 Z M 15 450 " clip-rule="nonzero"/></clipPath><clipPath id="20dce6d76c"><path d="M 909 436 L 1500 436 L 1500 1033.542969 L 909 1033.542969 Z M 909 436 " clip-rule="nonzero"/></clipPath><clipPath id="f60b98d357"><path d="M 1 14 L 576 14 L 576 597.542969 L 1 597.542969 Z M 1 14 " clip-rule="nonzero"/></clipPath><clipPath id="f8b6bc7496"><path d="M 24 0.320312 L 590 0.320312 L 590 574 L 24 574 Z M 24 0.320312 " clip-rule="nonzero"/></clipPath><clipPath id="c76b5122c7"><rect x="0" width="591" y="0" height="598"/></clipPath><clipPath id="2a88f20276"><path d="M 636 246 L 891 246 L 891 1140 L 636 1140 Z M 636 246 " clip-rule="nonzero"/></clipPath><clipPath id="ffd5af54ab"><path d="M 562.53125 1154.414062 L 656.597656 206.570312 L 937.21875 234.421875 L 843.15625 1182.265625 Z M 562.53125 1154.414062 " clip-rule="nonzero"/></clipPath><clipPath id="0a7a6e1b58"><path d="M 562.53125 1154.414062 L 656.597656 206.570312 L 937.21875 234.421875 L 843.15625 1182.265625 Z M 562.53125 1154.414062 " clip-rule="nonzero"/></clipPath><clipPath id="d525abc684"><path d="M 609 219 L 918 219 L 918 1167 L 609 1167 Z M 609 219 " clip-rule="nonzero"/></clipPath><clipPath id="af9fca2688"><path d="M 562.53125 1154.414062 L 656.597656 206.570312 L 937.21875 234.421875 L 843.15625 1182.265625 Z M 562.53125 1154.414062 " clip-rule="nonzero"/></clipPath><clipPath id="fef52448ed"><path d="M 562.53125 1154.414062 L 656.597656 206.570312 L 937.21875 234.421875 L 843.15625 1182.265625 Z M 562.53125 1154.414062 " clip-rule="nonzero"/></clipPath></defs><g clip-path="url(#e45b372008)"><path fill="#2d5a47" d="M 524.101562 1033.164062 C 515.4375 1033.164062 506.867188 1031.46875 498.859375 1028.078125 L 55.972656 844.40625 C 31.292969 834.140625 15.28125 810.214844 15.28125 783.464844 L 15.28125 700.386719 C 15.28125 673.636719 31.199219 649.710938 55.875 639.539062 L 498.765625 455.488281 C 518.828125 447.105469 542.5625 449.460938 560.648438 461.515625 C 579.015625 473.761719 589.941406 494.296875 589.941406 516.335938 L 589.941406 592.253906 C 589.941406 619.289062 572.988281 644.058594 547.746094 653.761719 L 318.292969 742.207031 L 547.746094 830.746094 C 572.988281 840.449219 589.941406 865.222656 589.941406 892.253906 L 589.941406 967.230469 C 589.941406 989.273438 579.015625 1009.804688 560.648438 1022.050781 C 549.722656 1029.304688 537.101562 1033.164062 524.007812 1033.164062 Z M 524.101562 1033.164062 " fill-opacity="1" fill-rule="nonzero"/></g><path fill="#e8d5a3" d="M 552.359375 573.417969 L 552.359375 497.5 C 552.359375 481.769531 544.542969 467.074219 531.449219 458.316406 C 523.632812 453.039062 514.496094 450.402344 505.265625 450.402344 C 499.140625 450.402344 493.019531 451.628906 487.179688 453.980469 L 44.292969 638.03125 C 26.675781 645.378906 15.28125 662.523438 15.28125 681.546875 L 15.28125 764.625 C 15.28125 783.652344 26.773438 800.796875 44.292969 808.140625 L 487.179688 991.816406 C 493.019531 994.265625 499.140625 995.394531 505.265625 995.394531 C 514.402344 995.394531 523.539062 992.757812 531.449219 987.484375 C 544.542969 978.722656 552.359375 964.027344 552.359375 948.300781 L 552.359375 873.324219 C 552.359375 853.824219 540.398438 836.398438 522.21875 829.335938 L 247.179688 723.273438 L 522.21875 617.214844 C 540.398438 610.246094 552.359375 592.726562 552.359375 573.226562 Z M 552.359375 573.417969 " fill-opacity="1" fill-rule="nonzero"/><path fill="#ffffff" d="M 247.085938 742.207031 C 247.085938 750.027344 251.890625 756.996094 259.140625 759.820312 L 534.277344 865.882812 C 535.40625 866.351562 536.535156 866.917969 537.667969 867.484375 C 535.59375 856.367188 527.871094 846.761719 517.132812 842.617188 L 247.652344 738.722656 C 247.460938 739.851562 247.085938 740.984375 247.085938 742.207031 Z M 247.085938 742.207031 " fill-opacity="1" fill-rule="nonzero"/><path fill="#ffffff" d="M 523.539062 470.089844 C 518.074219 466.507812 511.765625 464.53125 505.265625 464.53125 C 500.933594 464.53125 496.597656 465.378906 492.644531 467.074219 L 49.753906 651.125 C 37.414062 656.210938 29.410156 668.171875 29.410156 681.546875 L 29.410156 764.625 C 29.410156 778 37.414062 789.964844 49.753906 795.050781 L 57.101562 798.15625 C 54.464844 793.824219 52.957031 788.832031 52.957031 783.464844 L 52.957031 700.386719 C 52.957031 688.894531 59.832031 678.722656 70.382812 674.296875 L 513.269531 490.246094 C 516.757812 488.832031 520.335938 488.078125 524.101562 488.078125 C 528.8125 488.078125 533.429688 489.304688 537.476562 491.5625 C 535.875 482.898438 531.074219 475.082031 523.539062 470.089844 Z M 523.539062 470.089844 " fill-opacity="1" fill-rule="nonzero"/><path fill="#2d5a47" d="M 505.265625 1009.617188 C 497.164062 1009.617188 489.253906 1008.015625 481.8125 1004.90625 L 38.921875 821.140625 C 16.035156 811.628906 1.152344 789.398438 1.152344 764.625 L 1.152344 681.546875 C 1.152344 656.777344 15.941406 634.546875 38.828125 625.035156 L 481.714844 440.984375 C 500.367188 433.257812 522.3125 435.332031 539.171875 446.539062 C 556.222656 457.9375 566.394531 476.964844 566.394531 497.5 L 566.394531 573.417969 C 566.394531 598.566406 550.664062 621.546875 527.210938 630.496094 L 286.363281 723.371094 L 527.210938 816.242188 C 550.664062 825.285156 566.394531 848.265625 566.394531 873.324219 L 566.394531 948.300781 C 566.394531 968.832031 556.222656 987.859375 539.171875 999.257812 C 529.09375 1006.039062 517.320312 1009.523438 505.171875 1009.523438 Z M 505.265625 464.53125 C 500.933594 464.53125 496.597656 465.378906 492.644531 467.074219 L 49.753906 651.125 C 37.414062 656.210938 29.410156 668.171875 29.410156 681.546875 L 29.410156 764.625 C 29.410156 778 37.414062 789.964844 49.753906 795.050781 L 492.644531 978.722656 C 502.722656 982.867188 514.496094 981.738281 523.539062 975.707031 C 532.675781 969.585938 538.230469 959.320312 538.230469 948.300781 L 538.230469 873.324219 C 538.230469 859.757812 529.753906 847.417969 517.132812 842.523438 L 242 736.460938 C 236.535156 734.390625 232.957031 729.113281 232.957031 723.273438 C 232.957031 717.433594 236.535156 712.160156 242 710.089844 L 517.039062 604.027344 C 529.660156 599.132812 538.136719 586.792969 538.136719 573.226562 L 538.136719 497.5 C 538.136719 486.476562 532.675781 476.210938 523.445312 470.089844 C 517.980469 466.507812 511.667969 464.53125 505.171875 464.53125 Z M 505.265625 464.53125 " fill-opacity="1" fill-rule="nonzero"/><g clip-path="url(#20dce6d76c)"><g transform="matrix(1, 0, 0, 1, 909, 436)"><g clip-path="url(#c76b5122c7)"><g clip-path="url(#f60b98d357)"><path fill="#2d5a47" d="M 66.898438 597.164062 C 75.5625 597.164062 84.132812 595.46875 92.140625 592.078125 L 535.027344 408.40625 C 559.707031 398.140625 575.71875 374.214844 575.71875 347.464844 L 575.71875 264.386719 C 575.71875 237.636719 559.800781 213.710938 535.125 203.539062 L 92.234375 19.488281 C 72.171875 11.105469 48.4375 13.460938 30.351562 25.515625 C 11.984375 37.761719 1.058594 58.296875 1.058594 80.335938 L 1.058594 156.253906 C 1.058594 183.289062 18.011719 208.058594 43.253906 217.761719 L 272.707031 306.207031 L 43.253906 394.746094 C 18.011719 404.449219 1.058594 429.222656 1.058594 456.253906 L 1.058594 531.230469 C 1.058594 553.273438 11.984375 573.804688 30.351562 586.050781 C 41.277344 593.304688 53.898438 597.164062 66.992188 597.164062 Z M 66.898438 597.164062 " fill-opacity="1" fill-rule="nonzero"/></g><path fill="#e8d5a3" d="M 38.640625 137.417969 L 38.640625 61.5 C 38.640625 45.769531 46.457031 31.074219 59.550781 22.316406 C 67.367188 17.039062 76.503906 14.402344 85.734375 14.402344 C 91.859375 14.402344 97.980469 15.628906 103.820312 17.980469 L 546.707031 202.03125 C 564.324219 209.378906 575.71875 226.523438 575.71875 245.546875 L 575.71875 328.625 C 575.71875 347.652344 564.226562 364.796875 546.707031 372.140625 L 103.820312 555.816406 C 97.980469 558.265625 91.859375 559.394531 85.734375 559.394531 C 76.597656 559.394531 67.460938 556.757812 59.550781 551.484375 C 46.457031 542.722656 38.640625 528.027344 38.640625 512.300781 L 38.640625 437.324219 C 38.640625 417.824219 50.601562 400.398438 68.78125 393.335938 L 343.820312 287.273438 L 68.78125 181.214844 C 50.601562 174.246094 38.640625 156.726562 38.640625 137.226562 Z M 38.640625 137.417969 " fill-opacity="1" fill-rule="nonzero"/><path fill="#ffffff" d="M 343.914062 306.207031 C 343.914062 314.027344 339.109375 320.996094 331.859375 323.820312 L 56.722656 429.882812 C 55.59375 430.351562 54.464844 430.917969 53.332031 431.484375 C 55.40625 420.367188 63.128906 410.761719 73.867188 406.617188 L 343.347656 302.722656 C 343.539062 303.851562 343.914062 304.984375 343.914062 306.207031 Z M 343.914062 306.207031 " fill-opacity="1" fill-rule="nonzero"/><path fill="#ffffff" d="M 67.460938 34.089844 C 72.925781 30.507812 79.234375 28.53125 85.734375 28.53125 C 90.066406 28.53125 94.402344 29.378906 98.355469 31.074219 L 541.246094 215.125 C 553.585938 220.210938 561.589844 232.171875 561.589844 245.546875 L 561.589844 328.625 C 561.589844 342 553.585938 353.964844 541.246094 359.050781 L 533.898438 362.15625 C 536.535156 357.824219 538.042969 352.832031 538.042969 347.464844 L 538.042969 264.386719 C 538.042969 252.894531 531.167969 242.722656 520.617188 238.296875 L 77.730469 54.246094 C 74.242188 52.832031 70.664062 52.078125 66.898438 52.078125 C 62.1875 52.078125 57.570312 53.304688 53.523438 55.5625 C 55.125 46.898438 59.925781 39.082031 67.460938 34.089844 Z M 67.460938 34.089844 " fill-opacity="1" fill-rule="nonzero"/><g clip-path="url(#f8b6bc7496)"><path fill="#2d5a47" d="M 85.734375 573.617188 C 93.835938 573.617188 101.746094 572.015625 109.1875 568.90625 L 552.078125 385.140625 C 574.964844 375.628906 589.847656 353.398438 589.847656 328.625 L 589.847656 245.546875 C 589.847656 220.777344 575.058594 198.546875 552.171875 189.035156 L 109.285156 4.984375 C 90.632812 -2.742188 68.6875 -0.667969 51.828125 10.539062 C 34.777344 21.9375 24.605469 40.964844 24.605469 61.5 L 24.605469 137.417969 C 24.605469 162.566406 40.335938 185.546875 63.789062 194.496094 L 304.636719 287.371094 L 63.789062 380.242188 C 40.335938 389.285156 24.605469 412.265625 24.605469 437.324219 L 24.605469 512.300781 C 24.605469 532.832031 34.777344 551.859375 51.828125 563.257812 C 61.90625 570.039062 73.679688 573.523438 85.828125 573.523438 Z M 85.734375 28.53125 C 90.066406 28.53125 94.402344 29.378906 98.355469 31.074219 L 541.246094 215.125 C 553.585938 220.210938 561.589844 232.171875 561.589844 245.546875 L 561.589844 328.625 C 561.589844 342 553.585938 353.964844 541.246094 359.050781 L 98.355469 542.722656 C 88.277344 546.867188 76.503906 545.738281 67.460938 539.707031 C 58.324219 533.585938 52.769531 523.320312 52.769531 512.300781 L 52.769531 437.324219 C 52.769531 423.757812 61.246094 411.417969 73.867188 406.523438 L 349 300.460938 C 354.464844 298.390625 358.042969 293.113281 358.042969 287.273438 C 358.042969 281.433594 354.464844 276.160156 349 274.089844 L 73.960938 168.027344 C 61.339844 163.132812 52.863281 150.792969 52.863281 137.226562 L 52.863281 61.5 C 52.863281 50.476562 58.324219 40.210938 67.554688 34.089844 C 73.019531 30.507812 79.332031 28.53125 85.828125 28.53125 Z M 85.734375 28.53125 " fill-opacity="1" fill-rule="nonzero"/></g></g></g></g><g clip-path="url(#2a88f20276)"><g clip-path="url(#ffd5af54ab)"><g clip-path="url(#0a7a6e1b58)"><path fill="#e8d5a3" d="M 705.371094 395.871094 C 699.285156 580.316406 570.890625 1071.164062 681.558594 1127.332031 C 732.714844 1153.160156 790.925781 1137.734375 811.765625 1087.972656 C 822.953125 1061.234375 828.578125 983.730469 832.121094 952.550781 C 851.046875 779.980469 874.828125 612.742188 887.125 463.496094 C 898.328125 327.976562 887.59375 259.628906 786.941406 247.394531 C 733.335938 239.019531 707.402344 318.371094 705.371094 395.871094 " fill-opacity="1" fill-rule="nonzero"/></g></g></g><g clip-path="url(#d525abc684)"><g clip-path="url(#af9fca2688)"><g clip-path="url(#fef52448ed)"><path fill="#2d5a47" d="M 907.714844 533 C 900.34375 607.277344 890.929688 684.945312 881.074219 766.160156 C 873.613281 827.761719 865.851562 891.492188 858.773438 955.554688 L 858.765625 955.644531 C 858.101562 961.417969 857.367188 968.800781 856.511719 977.429688 C 851.320312 1029.734375 846.292969 1074.960938 836.511719 1098.421875 C 824.503906 1127.054688 802.054688 1148.722656 773.152344 1159.328125 C 740.894531 1171.21875 703.089844 1168.363281 669.472656 1151.375 C 643.648438 1138.210938 626.042969 1110.144531 617.304688 1067.863281 C 610.554688 1035.394531 608.484375 993.777344 610.890625 940.566406 C 615.132812 845.320312 633.476562 727.484375 649.726562 623.457031 C 663.644531 533.933594 676.789062 449.449219 678.589844 395.101562 C 679.410156 363.292969 683.96875 332.753906 691.652344 306.925781 C 701.058594 275.519531 714.703125 252.082031 732.328125 237.390625 C 749.175781 223.34375 769.324219 217.617188 790.566406 220.804688 C 849.046875 228.042969 886.113281 253.730469 903.945312 299.429688 C 920.128906 340.917969 919.609375 395.933594 913.855469 465.699219 C 912.023438 487.796875 909.976562 510.230469 907.714844 533 Z M 805.460938 949.636719 C 812.476562 885.296875 820.257812 821.390625 827.824219 759.621094 C 840.625 654.171875 852.761719 554.496094 860.394531 461.292969 C 864.855469 407.296875 867.125 352.726562 853.945312 318.988281 C 848.785156 305.8125 841.636719 296.386719 831.457031 289.449219 C 820.019531 281.578125 804.34375 276.609375 783.660156 274.105469 L 782.773438 274.019531 C 776.582031 273.042969 771.769531 274.453125 766.667969 278.796875 C 747.476562 294.769531 733.609375 342.171875 732.144531 396.730469 L 732.128906 396.910156 C 730.1875 454.476562 716.785156 540.644531 702.613281 631.851562 C 686.679688 734.472656 668.488281 850.792969 664.359375 943.089844 C 662.199219 991.113281 664.050781 1029.476562 669.753906 1057.082031 C 674.933594 1081.847656 683.351562 1098.402344 693.609375 1103.644531 C 713.96875 1113.929688 736.136719 1115.949219 754.507812 1109.148438 C 769.429688 1103.621094 780.65625 1092.789062 786.898438 1077.867188 C 794.425781 1059.929688 799.996094 1002.902344 803.035156 972.300781 C 804.015625 963.328125 804.765625 955.765625 805.460938 949.636719 Z M 805.460938 949.636719 " fill-opacity="1" fill-rule="nonzero"/></g></g></g></svg>